#!OML:ASF F:\VICON\USERDATA\INSTALL\rory3\rory3.ASF
:FULLY-SPECIFIED
:DEGREES
537
root 1.72236 18.5574 0.511755 -3.42195 23.9594 -8.98346
lowerback 4.91409 6.49966 1.34248
upperback 0.572657 8.66655 -4.7885
thorax -1.19532 4.34695 -6.15179
lowerneck -8.01586 -12.9825 -9.98466
upperneck -1.73215 -17.1793 20.2425
head 3.54161 -8.09168 6.50129
rclavicle 3.18055e-015 -2.8625e-014
rhumerus 72.0592 -5.31369 -63.4679
rradius 35.808
rwrist 36.3831
rhand -58.1828 -3.54086
rfingers 7.12502
rthumb -30.4203 -31.0512
lclavicle 3.18055e-015 -2.8625e-014
lhumerus -11.7673 -16.1311 85.2392
lradius 50.3187
lwrist 10.6728
lhand -27.166 22.9953
lfingers 7.12502
lthumb -0.580427 52.9743
rfemur 0.676277 6.24354 20.8681
rtibia 20.1076
rfoot -16.49 -30.8475
rtoes -11.4226
lfemur -14.7214 -11.4673 -1.45768
ltibia 30.9945
lfoot -14.1768 5.34194
ltoes -17.0222
538
root 1.7624 18.5685 0.515051 -3.40444 23.799 -9.24348
lowerback 4.92872 6.62311 1.48856
upperback 0.532972 8.83774 -4.82297
thorax -1.19724 4.43219 -6.27719
lowerneck -7.83267 -13.1192 -10.0181
upperneck -1.84985 -17.3747 20.46
head 3.5326 -8.19805 6.5597
rclavicle 1.15295e-014 -2.54444e-014
rhumerus 72.2689 -4.22923 -63.0329
rradius 35.768
rwrist 36.4007
rhand -57.8496 -1.9823
rfingers 7.12502
rthumb -30.1024 -29.551
lclavicle 1.15295e-014 -2.54444e-014
lhumerus -11.9397 -16.247 85.2653
lradius 50.4471
lwrist 10.7627
lhand -27.5454 23.4731
lfingers 7.12502
lthumb -0.946836 53.4508
rfemur 0.561594 6.36849 20.9897
rtibia 20.0272
rfoot -15.9614 -30.9042
rtoes -12.3041
lfemur -14.6947 -11.4753 -1.31079
ltibia 30.9393
lfoot -14.2296 5.54256
ltoes -17.078
539
root 1.79988 18.5793 0.514405 -3.35164 23.7543 -9.43991
lowerback 4.864 6.65025 1.53533
upperback 0.57408 8.87848 -4.80838
thorax -1.10921 4.45527 -6.27611
lowerneck -7.81301 -13.2151 -10.0731
upperneck -1.87101 -17.507 20.5307
head 3.55547 -8.2638 6.57304
rclavicle 7.91163e-014 -4.13472e-014
rhumerus 72.615 -2.97241 -62.7467
rradius 35.8595
rwrist 36.4759
rhand -57.3216 -1.67008
rfingers 7.12502
rthumb -29.5985 -29.3293
lclavicle 7.91163e-014 -4.13472e-014
lhumerus -12.0252 -15.995 85.3125
lradius 50.5503
lwrist 10.5946
lhand -26.6492 23.2981
lfingers 7.12502
lthumb -0.0813206 53.2779
rfemur 0.548935 6.66511 21.0436
rtibia 19.908
rfoot -16.3542 -30.7845
rtoes -10.8003
lfemur -14.7546 -11.4304 -1.22693
ltibia 30.9331
lfoot -14.2571 5.60119
ltoes -16.994
540
root 1.83398 18.5911 0.510821 -3.26239 23.8017 -9.63154
lowerback 4.8144 6.67316 1.5931
upperback 0.602206 8.91352 -4.81253
thorax -1.03893 4.47508 -6.30337
lowerneck -7.80815 -13.3501 -10.1165
upperneck -1.85089 -17.7005 20.5985
head 3.60075 -8.35694 6.57349
rclavicle -8.3092e-014 2.22639e-014
rhumerus 72.9109 -1.80808 -62.4597
rradius 35.8531
rwrist 36.6076
rhand -57.0407 -1.63284
rfingers 7.12502
rthumb -29.3304 -29.3393
lclavicle -8.3092e-014 2.22639e-014
lhumerus -12.1414 -15.8484 85.3744
lradius 50.6811
lwrist 10.4424
lhand -27.8334 24.2925
lfingers 7.12502
lthumb -1.22502 54.2688
rfemur 0.503051 7.09708 21.0731
rtibia 19.7975
rfoot -17.4191 -30.5603
rtoes -8.24816
lfemur -14.9423 -11.4238 -1.12472
ltibia 30.9696
lfoot -14.2739 5.62093
ltoes -16.8637
541
root 1.86633 18.5981 0.506922 -3.13155 23.7613 -9.84626
lowerback 4.79662 6.72554 1.70513
upperback 0.559701 8.98799 -4.85269
thorax -1.04037 4.51195 -6.40871
lowerneck -7.76532 -13.5092 -10.0928
upperneck -1.75552 -17.9479 20.658
head 3.66304 -8.47596 6.55473
rclavicle -3.10104e-014 -2.22639e-014
rhumerus 73.1511 -0.650187 -61.9944
rradius 35.8313
rwrist 36.5476
rhand -56.5862 -1.84086
rfingers 7.12502
rthumb -28.8963 -29.6224
lclavicle -3.10104e-014 -2.22639e-014
lhumerus -12.3449 -15.8553 85.391
lradius 50.8832
lwrist 10.608
lhand -27.5453 24.3538
lfingers 7.12502
lthumb -0.946714 54.3315
rfemur 0.316707 7.30933 21.1195
rtibia 19.7433
rfoot -17.7522 -30.363
rtoes -7.04998
lfemur -15.1853 -11.259 -0.979441
ltibia 31.0176
lfoot -14.2103 5.67233
ltoes -17.4182
542
root 1.89993 18.6039 0.50179 -3.00535 23.7033 -9.91761
lowerback 4.80798 6.74306 1.70223
upperback 0.605548 9.01226 -4.87999
thorax -0.992139 4.52647 -6.43367
lowerneck -7.76302 -13.6014 -10.1705
upperneck -1.82379 -18.0681 20.7823
head 3.68198 -8.53536 6.58831
rclavicle -3.22031e-014 1.90833e-014
rhumerus 73.5618 0.594095 -61.3383
rradius 35.9009
rwrist 36.4174
rhand -55.9532 -2.6643
rfingers 7.12502
rthumb -28.2915 -30.5477
lclavicle -3.22031e-014 1.90833e-014
lhumerus -12.4074 -15.7566 85.3939
lradius 51.0603
lwrist 10.9642
lhand -27.0584 23.9073
lfingers 7.12502
lthumb -0.476511 53.8865
rfemur 0.127342 7.24605 21.0157
rtibia 19.7494
rfoot -17.3884 -30.2295
rtoes -7.36609
lfemur -15.3363 -11.0904 -0.999222
ltibia 31.0811
lfoot -14.2254 5.61564
ltoes -17.2746
543
root 1.93345 18.6113 0.50107 -2.88652 23.7382 -9.88614
lowerback 4.75098 6.76329 1.59547
upperback 0.739217 9.03841 -4.89469
thorax -0.832952 4.5462 -6.37221
lowerneck -7.61684 -13.6737 -10.2276
upperneck -2.27628 -18.105 20.8777
head 3.54647 -8.57982 6.6406
rclavicle -7.63333e-014 3.81667e-014
rhumerus 74.0561 1.70853 -60.7502
rradius 35.8965
rwrist 36.5195
rhand -55.3628 -3.44597
rfingers 7.12502
rthumb -27.7271 -31.4215
lclavicle -7.63333e-014 3.81667e-014
lhumerus -12.3905 -15.7306 85.4459
lradius 51.2331
lwrist 11.2275
lhand -26.5448 23.4635
lfingers 7.12502
lthumb 0.0195574 53.4433
rfemur 0.00801671 7.05697 20.8129
rtibia 19.7942
rfoot -17.0454 -30.0541
rtoes -7.54625
lfemur -15.4276 -11.0779 -1.13881
ltibia 31.1394
lfoot -14.3252 5.579
ltoes -16.4015
